<svg width="32" height="32" viewBox="0 0 32 32" fill="none" xmlns="http://www.w3.org/2000/svg">
<path d="M16 0C11.7565 0 7.68687 1.68571 4.68629 4.68629C1.68571 7.68687 0 11.7565 0 16C0 20.2435 1.68571 24.3131 4.68629 27.3137C7.68687 30.3143 11.7565 32 16 32C20.2435 32 24.3131 30.3143 27.3137 27.3137C30.3143 24.3131 32 20.2435 32 16C32 11.7565 30.3143 7.68687 27.3137 4.68629C24.3131 1.68571 20.2435 0 16 0V0ZM9.512 9.132C11.038 6.284 17.552 8.892 11.416 16C2.424 12.808 6.716 7.404 9.512 9.132ZM22.63 20.028C22.8199 19.9833 23.0186 19.9951 23.2019 20.0619C23.3851 20.1288 23.5448 20.2477 23.6613 20.4042C23.7777 20.5606 23.8459 20.7477 23.8574 20.9424C23.8689 21.1371 23.8233 21.3309 23.726 21.5C22.9362 22.8687 21.7999 24.0052 20.4313 24.7952C19.0627 25.5852 17.5102 26.0007 15.93 26C14.3498 26.0007 12.7973 25.5852 11.4287 24.7952C10.0601 24.0052 8.92375 22.8687 8.134 21.5C8.03675 21.3309 7.99106 21.1371 8.00256 20.9424C8.01407 20.7477 8.08226 20.5606 8.19874 20.4042C8.31522 20.2477 8.4749 20.1288 8.65814 20.0619C8.84137 19.9951 9.04015 19.9833 9.23 20.028H9.24L9.274 20.038L9.408 20.068L9.912 20.178C10.342 20.27 10.942 20.394 11.626 20.516C13.012 20.764 14.67 21 15.93 21C17.19 21 18.85 20.764 20.234 20.516C20.9764 20.3824 21.7159 20.2331 22.452 20.068L22.586 20.038L22.62 20.03L22.63 20.026V20.028ZM22.49 9.132C25.284 7.404 29.576 12.808 20.584 16C14.45 8.892 20.964 6.284 22.488 9.132H22.49Z" fill="#FF3864"/>
</svg>
